<svg width="767" height="767" viewBox="0 0 767 767" fill="none" xmlns="http://www.w3.org/2000/svg">
<path d="M474.016 172.097C450.196 161.474 254.873 0 281.074 0H2.38141V206.091H14.2914C85.751 206.091 159.593 220.964 228.67 250.709L285.839 274.08C309.659 284.703 300.131 316.573 273.929 316.573H0V522.665H11.91C173.885 522.665 328.714 594.903 462.106 733.005L493.071 767H767V560.908H752.708C681.248 560.908 607.407 546.036 538.329 516.291L481.161 492.92C457.341 482.296 466.869 450.426 493.071 450.426H767V244.335H752.708C676.484 244.335 602.643 227.338 528.801 195.468L474.016 172.097Z" fill="url(#paint0_linear_1_15)"/>
<defs>
<linearGradient id="paint0_linear_1_15" x1="170.967" y1="981.391" x2="794.759" y2="866.917" gradientUnits="userSpaceOnUse">
<stop stop-color="#5E1DB8"/>
<stop offset="0.5" stop-color="#51009F"/>
<stop offset="1" stop-color="#3F007D"/>
</linearGradient>
</defs>
</svg>
