<svg width="798" height="250" viewBox="0 0 798 250" fill="none" xmlns="http://www.w3.org/2000/svg">
<path d="M149.882 80.9003C144.913 78.6842 104.168 45 109.634 45H51.4968V87.9917H53.9812C68.8881 87.9917 84.2918 91.0942 98.7018 97.2992L110.627 102.174C115.596 104.391 113.609 111.039 108.143 111.039H51V154.03H53.4845C87.2733 154.03 119.571 169.1 147.398 197.909L153.857 205H211V162.008H208.019C193.112 162.008 177.708 158.906 163.298 152.701L151.373 147.825C146.404 145.609 148.391 138.961 153.857 138.961H211V95.9695H208.019C192.118 95.9695 176.714 92.4238 161.311 85.7756L149.882 80.9003Z" fill="url(#paint0_linear_1_21)"/>
<path d="M370.985 179H294.965V157.72L341.165 96.4H296.365V75.4H369.585V95.7L322.685 158H370.985V179ZM393.213 98.08C386.353 98.08 380.893 92.62 380.893 85.76C380.893 78.9 386.353 73.58 393.213 73.58C399.933 73.58 405.393 78.9 405.393 85.76C405.393 92.62 399.933 98.08 393.213 98.08ZM382.573 179V109H404.133V179H382.573ZM416.807 142.74C416.807 121.46 430.667 106.62 450.408 106.62C459.928 106.62 467.488 110.26 471.268 116L472.388 109H492.688V174.52C492.688 199.58 478.268 214.7 454.328 214.7C432.908 214.7 418.488 202.52 416.528 182.64H438.368C438.788 190.48 444.668 195.1 454.188 195.1C464.548 195.1 471.128 188.94 471.128 179V169.9C466.928 174.94 459.088 178.16 449.988 178.16C430.388 178.16 416.807 163.74 416.807 142.74ZM438.508 142.18C438.508 152.26 445.228 159.4 454.748 159.4C464.548 159.4 471.128 152.54 471.128 142.18C471.128 131.96 464.548 125.38 454.608 125.38C445.088 125.38 438.508 132.24 438.508 142.18ZM505.401 142.74C505.401 121.46 519.261 106.62 539.001 106.62C548.521 106.62 556.081 110.26 559.861 116L560.981 109H581.281V174.52C581.281 199.58 566.861 214.7 542.921 214.7C521.501 214.7 507.081 202.52 505.121 182.64H526.961C527.381 190.48 533.261 195.1 542.781 195.1C553.141 195.1 559.721 188.94 559.721 179V169.9C555.521 174.94 547.681 178.16 538.581 178.16C518.981 178.16 505.401 163.74 505.401 142.74ZM527.101 142.18C527.101 152.26 533.821 159.4 543.341 159.4C553.141 159.4 559.721 152.54 559.721 142.18C559.721 131.96 553.141 125.38 543.201 125.38C533.681 125.38 527.101 132.24 527.101 142.18ZM591.895 212.6V194.54H603.795C611.075 194.54 614.155 192.3 616.955 184.74L618.215 181.38L590.075 109H613.175L628.435 153.94L645.375 109H667.775L632.215 194.26C626.335 208.54 618.495 214.56 606.175 214.56C600.995 214.56 596.095 213.86 591.895 212.6Z" fill="url(#paint1_linear_1_21)"/>
<defs>
<linearGradient id="paint0_linear_1_21" x1="86.6645" y1="249.723" x2="216.791" y2="225.843" gradientUnits="userSpaceOnUse">
<stop stop-color="#5E1DB8"/>
<stop offset="0.5" stop-color="#51009F"/>
<stop offset="1" stop-color="#3F007D"/>
</linearGradient>
<linearGradient id="paint1_linear_1_21" x1="584.743" y1="202.952" x2="370.202" y2="54.1291" gradientUnits="userSpaceOnUse">
<stop stop-color="#5E1DB8"/>
<stop offset="0.5" stop-color="#51009F"/>
<stop offset="1" stop-color="#3F007D"/>
</linearGradient>
</defs>
</svg>
